<svg width="14" height="14" viewBox="0 0 14 14" fill="none" xmlns="http://www.w3.org/2000/svg">
<path d="M4.08329 3.50002V1.75002C4.08329 1.59531 4.14475 1.44694 4.25415 1.33754C4.36354 1.22815 4.51192 1.16669 4.66663 1.16669H9.33329C9.488 1.16669 9.63638 1.22815 9.74577 1.33754C9.85517 1.44694 9.91663 1.59531 9.91663 1.75002V3.50002H12.8333V4.66669H11.6666V12.25C11.6666 12.4047 11.6052 12.5531 11.4958 12.6625C11.3864 12.7719 11.238 12.8334 11.0833 12.8334H2.91663C2.76192 12.8334 2.61354 12.7719 2.50415 12.6625C2.39475 12.5531 2.33329 12.4047 2.33329 12.25V4.66669H1.16663V3.50002H4.08329ZM7.82479 8.16669L8.85613 7.13535L8.03129 6.31052L6.99996 7.34185L5.96863 6.31052L5.14379 7.13535L6.17513 8.16669L5.14379 9.19802L5.96863 10.0229L6.99996 8.99152L8.03129 10.0229L8.85613 9.19802L7.82479 8.16669ZM5.24996 2.33335V3.50002H8.74996V2.33335H5.24996Z" fill="#2D2942"/>
</svg>
